{
    "asset" : {
        "generator" : "Khronos glTF Blender I/O v3.4.49",
        "version" : "2.0"
    },
    "scene" : 0,
    "scenes" : [
        {
            "name" : "Scene",
            "nodes" : [
                0,
                1,
                2,
                3
            ]
        }
    ],
    "nodes" : [
        {
            "mesh" : 0,
            "name" : "poro",
            "rotation" : [
                0.005239087622612715,
                0.7279254198074341,
                0.0032725592609494925,
                0.6856285333633423
            ],
            "scale" : [
                0.029565298929810524,
                0.029565291479229927,
                0.029565293341875076
            ],
            "translation" : [
                0,
                0.2500000298023224,
                0
            ]
        },
        {
            "mesh" : 1,
            "name" : "brush",
            "rotation" : [
                -0.7070670127868652,
                0.7070669531822205,
                0.007505983579903841,
                0.007505983579903841
            ],
            "scale" : [
                0.7123284339904785,
                0.7123284935951233,
                0.7123284339904785
            ],
            "translation" : [
                0.44611674547195435,
                0.6998615264892578,
                -0.7903156876564026
            ]
        },
        {
            "name" : "center.004",
            "rotation" : [
                -0.9999436736106873,
                0,
                0,
                0.010614931583404541
            ],
            "scale" : [
                1.3855340480804443,
                1.3855345249176025,
                1.3855345249176025
            ],
            "translation" : [
                0.44611674547195435,
                1.4220521450042725,
                0.04843151569366455
            ]
        },
        {
            "mesh" : 2,
            "name" : "stick",
            "rotation" : [
                -0.7070670127868652,
                0.7070669531822205,
                0.007505954708904028,
                0.007505952846258879
            ],
            "scale" : [
                0.47403255105018616,
                0.4940325617790222,
                0.4740326404571533
            ],
            "translation" : [
                0.44611674547195435,
                0.6804574728012085,
                -0.34743016958236694
            ]
        }
    ],
    "materials" : [
        {
            "doubleSided" : true,
            "name" : "Material.001",
            "pbrMetallicRoughness" : {
                "baseColorTexture" : {
                    "index" : 0
                },
                "metallicFactor" : 0,
                "roughnessFactor" : 0.5
            }
        },
        {
            "doubleSided" : true,
            "name" : "Material",
            "pbrMetallicRoughness" : {
                "baseColorTexture" : {
                    "index" : 1
                },
                "metallicFactor" : 0,
                "roughnessFactor" : 0.5
            }
        },
        {
            "doubleSided" : true,
            "name" : "Material.002",
            "pbrMetallicRoughness" : {
                "baseColorTexture" : {
                    "index" : 2
                },
                "metallicFactor" : 0,
                "roughnessFactor" : 0.5
            }
        }
    ],
    "meshes" : [
        {
            "name" : "poro",
            "primitives" : [
                {
                    "attributes" : {
                        "COLOR_0" : 0,
                        "POSITION" : 1,
                        "TEXCOORD_0" : 2,
                        "NORMAL" : 3
                    },
                    "indices" : 4,
                    "material" : 0
                }
            ]
        },
        {
            "name" : "Sphere",
            "primitives" : [
                {
                    "attributes" : {
                        "POSITION" : 5,
                        "TEXCOORD_0" : 6,
                        "NORMAL" : 7
                    },
                    "indices" : 8,
                    "material" : 1
                }
            ]
        },
        {
            "name" : "Cylinder",
            "primitives" : [
                {
                    "attributes" : {
                        "POSITION" : 9,
                        "TEXCOORD_0" : 10,
                        "NORMAL" : 11
                    },
                    "indices" : 12,
                    "material" : 2
                }
            ]
        }
    ],
    "textures" : [
        {
            "sampler" : 0,
            "source" : 0
        },
        {
            "sampler" : 0,
            "source" : 1
        },
        {
            "sampler" : 0,
            "source" : 2
        }
    ],
    "images" : [
        {
            "bufferView" : 5,
            "mimeType" : "image/png",
            "name" : "DavinkyTexture"
        },
        {
            "bufferView" : 10,
            "mimeType" : "image/png",
            "name" : "Brush"
        },
        {
            "bufferView" : 15,
            "mimeType" : "image/png",
            "name" : "stick Base Color"
        }
    ],
    "accessors" : [
        {
            "bufferView" : 0,
            "componentType" : 5123,
            "count" : 6690,
            "normalized" : true,
            "type" : "VEC4"
        },
        {
            "bufferView" : 1,
            "componentType" : 5126,
            "count" : 6690,
            "max" : [
                20.44473648071289,
                35.48179626464844,
                21.92807388305664
            ],
            "min" : [
                -20.444623947143555,
                0.21689073741436005,
                -18.638290405273438
            ],
            "type" : "VEC3"
        },
        {
            "bufferView" : 2,
            "componentType" : 5126,
            "count" : 6690,
            "type" : "VEC2"
        },
        {
            "bufferView" : 3,
            "componentType" : 5126,
            "count" : 6690,
            "type" : "VEC3"
        },
        {
            "bufferView" : 4,
            "componentType" : 5123,
            "count" : 6690,
            "type" : "SCALAR"
        },
        {
            "bufferView" : 6,
            "componentType" : 5126,
            "count" : 200,
            "max" : [
                0.33107659220695496,
                0.296061635017395,
                1.3892260789871216
            ],
            "min" : [
                -0.24468307197093964,
                -0.28785932064056396,
                0.07353270798921585
            ],
            "type" : "VEC3"
        },
        {
            "bufferView" : 7,
            "componentType" : 5126,
            "count" : 200,
            "type" : "VEC2"
        },
        {
            "bufferView" : 8,
            "componentType" : 5126,
            "count" : 200,
            "type" : "VEC3"
        },
        {
            "bufferView" : 9,
            "componentType" : 5123,
            "count" : 540,
            "type" : "SCALAR"
        },
        {
            "bufferView" : 11,
            "componentType" : 5126,
            "count" : 60,
            "max" : [
                0.06323394179344177,
                0.038185909390449524,
                1.0582259893417358
            ],
            "min" : [
                -0.05306563526391983,
                -0.08400224894285202,
                -2.961470603942871
            ],
            "type" : "VEC3"
        },
        {
            "bufferView" : 12,
            "componentType" : 5126,
            "count" : 60,
            "type" : "VEC2"
        },
        {
            "bufferView" : 13,
            "componentType" : 5126,
            "count" : 60,
            "type" : "VEC3"
        },
        {
            "bufferView" : 14,
            "componentType" : 5123,
            "count" : 108,
            "type" : "SCALAR"
        }
    ],
    "bufferViews" : [
        {
            "buffer" : 0,
            "byteLength" : 53520,
            "byteOffset" : 0,
            "target" : 34962
        },
        {
            "buffer" : 0,
            "byteLength" : 80280,
            "byteOffset" : 53520,
            "target" : 34962
        },
        {
            "buffer" : 0,
            "byteLength" : 53520,
            "byteOffset" : 133800,
            "target" : 34962
        },
        {
            "buffer" : 0,
            "byteLength" : 80280,
            "byteOffset" : 187320,
            "target" : 34962
        },
        {
            "buffer" : 0,
            "byteLength" : 13380,
            "byteOffset" : 267600,
            "target" : 34963
        },
        {
            "buffer" : 0,
            "byteLength" : 158514,
            "byteOffset" : 280980
        },
        {
            "buffer" : 0,
            "byteLength" : 2400,
            "byteOffset" : 439496,
            "target" : 34962
        },
        {
            "buffer" : 0,
            "byteLength" : 1600,
            "byteOffset" : 441896,
            "target" : 34962
        },
        {
            "buffer" : 0,
            "byteLength" : 2400,
            "byteOffset" : 443496,
            "target" : 34962
        },
        {
            "buffer" : 0,
            "byteLength" : 1080,
            "byteOffset" : 445896,
            "target" : 34963
        },
        {
            "buffer" : 0,
            "byteLength" : 285164,
            "byteOffset" : 446976
        },
        {
            "buffer" : 0,
            "byteLength" : 720,
            "byteOffset" : 732140,
            "target" : 34962
        },
        {
            "buffer" : 0,
            "byteLength" : 480,
            "byteOffset" : 732860,
            "target" : 34962
        },
        {
            "buffer" : 0,
            "byteLength" : 720,
            "byteOffset" : 733340,
            "target" : 34962
        },
        {
            "buffer" : 0,
            "byteLength" : 216,
            "byteOffset" : 734060,
            "target" : 34963
        },
        {
            "buffer" : 0,
            "byteLength" : 20569,
            "byteOffset" : 734276
        }
    ],
    "samplers" : [
        {
            "magFilter" : 9729,
            "minFilter" : 9987
        }
    ],
    "buffers" : [
        {
            "byteLength" : 754848,
            "uri" : "data:application/octet-stream;base64,"
        }
    ]
}
